<?xml version="1.0" encoding="utf-8"?>
<!-- Generator: Adobe Illustrator 23.0.3, SVG Export Plug-In . SVG Version: 6.00 Build 0)  -->
<svg version="1.1" id="a0efb2fe-b3cc-4026-a10e-426d5b99099a"
	 xmlns="http://www.w3.org/2000/svg" xmlns:xlink="http://www.w3.org/1999/xlink" x="0px" y="0px" viewBox="0 0 1109.9 651"
	 style="enable-background:new 0 0 1109.9 651;" xml:space="preserve">
<style type="text/css">
	.st0{fill:#2F2E41;}
	.st1{fill:#3F3D56;}
	.st2{fill:#EB4C4B;}
	.st3{fill:#FFB8B8;}
	.st4{fill:#A0616A;}
	.st5{fill:#D0CDE1;}
	.st6{opacity:0.2;enable-background:new    ;}
	.st7{font-family:'Helvetica-Bold';}
	.st8{font-size:40px;}
</style>
<title>friends_online</title>
<path class="st0" d="M871.7,18.2L871.7,18.2c-26.5,0-48.1,23.9-48.1,53.3V109h11.5l6.7-13.9l-1.7,13.9h74l6.1-12.6l-1.5,12.6h8.3
	V79.6C927,45.7,902.2,18.2,871.7,18.2z"/>
<ellipse class="st1" cx="588.4" cy="616" rx="521.4" ry="35"/>
<path class="st1" d="M237.1,603.5c-0.2-0.4-5.6-9.4-7.5-28.2c-1.7-17.2-0.6-46.2,14.4-86.7c28.5-76.7-6.6-138.5-6.9-139.1l1.7-1
	c0.1,0.2,9.1,15.9,14.5,41c7.1,33.3,4.5,67.9-7.4,99.8c-28.5,76.5-7.3,112.8-7.1,113.1L237.1,603.5z"/>
<circle class="st2" cx="226" cy="332" r="13"/>
<circle class="st1" cx="267" cy="380" r="13"/>
<circle class="st2" cx="239" cy="412" r="13"/>
<circle class="st2" cx="273" cy="439" r="13"/>
<circle class="st1" cx="229" cy="481" r="13"/>
<path class="st1" d="M245,604c0,0-13-32,26-56L245,604z"/>
<path class="st1" d="M229,603.4c0,0-5.9-34-51.7-33.7L229,603.4z"/>
<path class="st3" d="M848.5,85.5c0,0,15,35-5,42l20,66l34-2l9-22l-2-33l-3-22c0,0-21,5-19-32L848.5,85.5z"/>
<path class="st3" d="M840.5,126.5c0,0-33-3-30,21s6,29,6,29l3,36l-18,11h-17c0,0-52,12-26,25s35-10,35-10s48,0,51-8
	S840.5,126.5,840.5,126.5z"/>
<path class="st3" d="M904.5,116.5c0,0,31-11,33,13s2,26,2,26l6,34c0,0,12,30,12,39s9,37,9,37s12,39-1,38s-15-42-15-42l-27-54l-8-33
	L904.5,116.5z"/>
<path class="st2" d="M845.5,122.5h-8l-1,42c0,0-13,18,3,34l4,26l73-3l5-27c0,0,10-22-4-42l-13-41h-7c0,0,16.2,59.8-18,61
	C851.5,173.5,845.5,122.5,845.5,122.5z"/>
<path class="st0" d="M847.5,219.5l-6,20c0,0-125,352-87,361s91,21,96,12s31-272,31-272s-4,275,9,275s99,2,104-11s-45-361-74-369
	l-8-18L847.5,219.5z"/>
<path class="st1" d="M919.5,209.5l-79,3c0,0-3.6,27,0,27c1,0,83,7,82-5S919.5,209.5,919.5,209.5z"/>
<path class="st1" d="M511,400c0,43.4-24.8,83-63.9,101.8c0,0,0,0,0,0c-3.4,1.7-7,3.1-10.5,4.4c-0.6,0.2-1.1,0.4-1.7,0.6
	c-1.2,0.4-2.4,0.8-3.6,1.2c-2.5,0.8-5.1,1.5-7.7,2.1h0l-0.1,0l-0.2,0c-0.3,0.1-0.7,0.2-1,0.2c-1.9,0.4-3.9,0.8-5.9,1.1
	c-6,1-12.1,1.5-18.3,1.5c-3.3,0-6.5-0.1-9.8-0.4c-0.2,0-0.3,0-0.5,0c-8.8-0.8-17.5-2.6-25.9-5.4c-1.2-0.4-2.5-0.9-3.7-1.3
	c-58.4-22-87.9-87.2-65.9-145.6c22-58.4,87.2-87.9,145.6-65.9C481.8,310.8,511,353,511,400z"/>
<path class="st1" d="M384.6,401.3c0,0,26.5-11.5,39,0.7S390.2,410.1,384.6,401.3z"/>
<path class="st0" d="M430.3,346.5c-8.9-15-26.5-15.8-26.5-15.8s-17.2-2.2-28.2,20.7c-10.3,21.4-24.4,42-2.3,47l4-12.5l2.5,13.4
	c3.2,0.2,6.3,0.3,9.5,0.2c23.7-0.8,46.3,0.2,45.6-8.3C433.9,379.9,438.9,361,430.3,346.5z"/>
<path class="st0" d="M434.8,506.9c0.6-0.2,1.2-0.4,1.7-0.6l-0.1-0.2l-1.6-0.1l-10.4-0.6h0l-1.8-0.1l-8.3-0.5l-18-1l-9.7-0.5l-0.5,0
	H386l-6.8-0.4l-2.2-0.1l-2.1,7.7c4.3,0.9,8.6,1.5,12.9,1.9c0.2,0,0.3,0,0.5,0c3.2,0.3,6.5,0.4,9.8,0.4c6.1,0,12.2-0.5,18.3-1.5
	c2-0.3,3.9-0.7,5.9-1.1c0.4-0.1,0.7-0.2,1-0.2l0.2,0l0.1,0h0c2.6-0.6,5.2-1.3,7.7-2.1L434.8,506.9z"/>
<path class="st4" d="M389,379.2c0,0,4,26.5-4,29.7s16.1,16.9,16.1,16.9h13.7l8.8-18.5c0,0-8-14.5-3.2-28.1S389,379.2,389,379.2z"/>
<path class="st1" d="M434.8,506.9v-94c0,0-1-9.7-9.1-7.1c-0.8,0.3-1.6,0.6-2.4,1c-1.3,0.7-2.6,1.6-3.8,2.5c-0.5,0.3-0.9,0.7-1.4,1.1
	c0,0-0.1,0.1-0.1,0.1c-15.3,12.8-22.5,4-24.1,2.4c-0.6-0.6-2.1-2.2-3.9-4.1v0c-0.8-0.8-1.5-1.6-2.3-2.5c-2.3-2.5-4.3-4.7-4.3-4.7
	l-8,6.4l2,48.7l0.5,11.5v0l0.1,3.6v0l1.2,31.1l0.2,4.7c2.7,0.9,5.5,1.6,8.3,2.2c0.8,0.2,1.7,0.3,2.6,0.5c7,1.3,15.7,1.9,21.3-1.1
	c1.1-0.6,2.3-1.1,3.5-1.5c2.4-0.7,4.9-1.1,7.5-1c0.5,0,1.1,0,1.6,0.1h0c2.4,0.2,4.7,0.6,7,1.2L434.8,506.9z"/>
<path class="st5" d="M396.2,503.9c-1.8,2.3-3.8,4.5-6,6.5c-0.7,0.6-1.4,1.2-2,1.8c-0.1,0.1-0.3,0.2-0.4,0.3
	c-8.8-0.8-17.5-2.6-25.9-5.4c-1.2-0.4-2.5-0.9-3.7-1.3c0.8-2,1.4-4,1.8-6c5.5-25.9-10.5-65.3-12-71.6c-0.5-2.3,1.4-5.4,4.4-8.8
	c6.6-7.3,18.5-15.5,22.9-17.7c3.3-1.5,7.1-1.8,10.6-1h0c1.1,0.2,2.2,0.6,3.3,1v0c0,0.2,0.1,1.3,0.3,3.2c0.1,1.1,0.2,2.4,0.4,3.9v0
	c0.3,2.8,0.6,6.4,1,10.4v0c2.4,24.9,6.8,68.2,8.5,75.6C400.1,497.6,398.7,500.7,396.2,503.9z"/>
<path class="st5" d="M434.8,506.9c0.6-0.2,1.2-0.4,1.7-0.6c3.6-1.3,7.1-2.8,10.5-4.4c-5.1-15,10-62.8,14.4-77.5v0
	c0.5-1.7,0.9-3,1-3.7c1.6-7.2-22.9-14-23.7-15.7c-0.6-1.2-10.6-2.5-15.3-3c-1.5-0.2-2.4-0.2-2.4-0.2c-1.2,1-2.2,3.7-2.9,7.7
	c-0.1,0.3-0.1,0.7-0.2,1c-0.5,3.1-0.9,6.8-1.3,11.1c-1.8,23-1.2,59.2-2.9,74.2c-0.3,3.1-0.2,6.2,0.4,9.2c0.2,1,0.4,2,0.7,2.9
	c0.3,1.3,0.8,2.5,1.3,3.7c2-0.3,3.9-0.7,5.9-1.1c0.4-0.1,0.7-0.2,1-0.2l0.2,0l0.1,0h0c2.6-0.6,5.2-1.3,7.7-2.1L434.8,506.9z"/>
<ellipse class="st4" cx="428.7" cy="368.3" rx="1.6" ry="3.2"/>
<ellipse class="st4" cx="381.4" cy="368.3" rx="1.6" ry="3.2"/>
<path class="st5" d="M434.8,506.9c0.6-0.2,1.2-0.4,1.7-0.6c3.6-1.3,7.1-2.8,10.5-4.4c0,0,0,0,0,0c0,0,0,0,0,0
	c6-31.7,12.4-65.6,14.4-77.5v0c0.4-2.1,0.6-3.5,0.6-4.1c0.8-8-19.3-8-19.3-8l-3.2,16.2l-4.8,24.4l-1.7,8.4l-8.8,44.3l-0.3,1.4
	l-0.6,3.3h0c2.6-0.6,5.2-1.3,7.7-2.1L434.8,506.9z"/>
<path class="st5" d="M387.7,512.5c-8.8-0.8-17.5-2.6-25.9-5.4c-0.6-2.4-1.3-4.9-1.9-7.4c-7.8-30.7-15.2-63.1-15.2-69.2
	c0-5,3.5-8.7,7.6-11.2c3.9-2.3,8.1-3.9,12.5-4.9c0,0,2.6,10.7,6.2,26c2,8.2,4.2,17.7,6.6,27.7v0c2.8,11.6,5.6,23.7,8.3,35.1
	c0.4,1.8,0.9,3.7,1.3,5.4v0c0,0,0,0,0,0c0.1,0.3,0.2,0.7,0.2,1c0.2,0.8,0.4,1.5,0.5,2.3c0,0.1,0.1,0.3,0.1,0.4
	C388.1,512.6,387.9,512.6,387.7,512.5z"/>
<path class="st6" d="M369.3,438.2l18.1,70.7C387.4,508.9,379,447,369.3,438.2z"/>
<path class="st6" d="M416.3,511.5l5.9-1.1v0C420.2,510.8,418.2,511.2,416.3,511.5z"/>
<path class="st6" d="M439.6,428.3l-4.8,24.4l-1.7,8.4l-8.8,44.3h0l-0.3,1.4h0l-0.6,3.3h0l-0.1,0l-0.2,0l-1,0.2
	c0.1-1.1,0.2-2.3,0.3-3.6c0-0.5,0.1-1,0.1-1.5c1.9-20.4,5.9-55.7,12.2-70.5C436.2,431.4,437.9,429,439.6,428.3z"/>
<circle class="st4" cx="405.1" cy="368.7" r="23.3"/>
<polygon class="st0" points="426.4,345 409,335.9 385,339.7 380,361.6 392.4,361.1 395.8,353.1 395.8,361 401.5,360.8 404.8,347.9 
	406.9,361.6 427.2,361.2 "/>
<path class="st1" d="M226,257c0,36.4-17.5,70.6-47.1,91.8c-4,2.9-8.1,5.5-12.5,7.8c-23.7,12.7-51.1,16.5-77.4,10.9
	c-5.6-1.2-11.1-2.8-16.4-4.9C14.3,340.3-14.9,275,7.4,216.7s87.6-87.5,145.9-65.2C197.1,168.2,226,210.2,226,257L226,257z"/>
<circle class="st3" cx="105.9" cy="223.6" r="26"/>
<path class="st3" d="M95.7,243.5c0,0,3.2,15.4,3.2,17.1s15.4,8.9,15.4,8.9l13.8-2.4l4.9-14.6c0,0-8.1-12.2-8.1-17.1L95.7,243.5z"/>
<path class="st5" d="M113,370c-8,0-16.1-0.9-23.9-2.5c-0.4-8-0.6-16.7-0.6-16.7l-7.9-23l-16.4-47.7l33.9-25.8c0,0,8.4,13.6,20.6,9.6
	c6.9-2.1,11.8-8.4,11.9-15.7l40.1,14.1l-6.9,56.1l-0.4,3.1l3.3,35.1C150,365.4,131.6,370,113,370z"/>
<path class="st0" d="M83.3,202.7c0,0,8.3-17.9,24.1-13.8s24.8,10.3,25.4,16.5s-0.3,15.5-0.3,15.5s-1.7-12.7-12.7-10
	s-28.2,0.7-28.2,0.7l-2.8,24.8c0,0-3.1-4.5-6.5-1.7S72.3,208.2,83.3,202.7z"/>
<path class="st5" d="M49.1,350.2l5.2-44.1c-0.8-17.1,9.8-26,9.8-26h12.2l8.9,30l-4.7,17.6l-5.9,22.2l-1.6,2.4c0,0,1.6,2.4,0.8,3.2
	c-0.8,0.8-1.6,4.1-1.6,4.1s0.2,1.2,0.5,2.9C64.3,359.4,56.4,355.2,49.1,350.2z"/>
<path class="st5" d="M198.9,330.5c-5.9,6.9-12.6,13.1-20,18.3c-1.1-2-2-4-2.8-6.2l-12.6-24.2L155,302l1.6-42.2l13.8,2.4
	c0,0,8.1,8.1,11.4,17.9l6.5,29.2L198.9,330.5L198.9,330.5z"/>
<path class="st1" d="M778,192c0,39.5-20.6,76.1-54.3,96.5c-2,1.2-4,2.4-6.1,3.5c-3.1,1.6-6.3,3.1-9.5,4.5v0c-1,0.4-2.1,0.8-3.1,1.2
	c-0.5,0.2-1,0.4-1.5,0.6c-12.3,4.4-25.3,6.7-38.4,6.7c-8.6,0-17.2-1-25.6-2.9c-4.4-1-8.6-2.3-12.8-3.8h0c-5.3-1.9-10.5-4.3-15.5-7
	c-1.3-0.7-2.6-1.4-3.8-2.2c-0.9-0.5-1.7-1-2.6-1.6c-52.8-33.3-68.5-103.1-35.2-155.9s103.1-68.5,155.9-35.2
	C758.1,117.2,778,153.2,778,192z"/>
<path class="st4" d="M652,175.5c0,0,0.7,17.4-3.3,21.4s20.1,18.1,20.1,18.1l14-22.1c0,0-5.4-9.4-4-17.4L652,175.5z"/>
<circle class="st4" cx="663.7" cy="161.1" r="24.1"/>
<path class="st5" d="M704.5,292.1c0.1,1.9,0.3,3.7,0.4,5.6c-0.5,0.2-1,0.4-1.5,0.6c-12.3,4.4-25.3,6.7-38.4,6.7
	c-8.6,0-17.2-1-25.6-2.9c-4.4-1-8.6-2.3-12.8-3.8l0,0.1c0,0,0-0.1,0-0.1c0.2-2,0.5-4.1,1.1-6v0c0.6-2.1,1.3-4.4,2.2-7.1
	c0.9-2.8,1-9,0.8-14.7c0-0.4,0-0.9,0-1.3c-0.1-1.9-0.2-3.7-0.3-5.2c-0.2-3.6-0.5-6.1-0.5-6.1l-14.7-39.5l35.5-26
	c2.1,6.8,6.6,6.6,6.6,6.6c19.1,1.3,22.6-11.9,22.7-12.3v0l34.2,22.3l-14,34.1c0,0,0.6,5.8,1.4,14.6c0.1,1.3,0.2,2.7,0.4,4.1
	C702.7,270.4,703.6,281.2,704.5,292.1z"/>
<path class="st4" d="M631.6,264.1l-0.7,5.1l-0.2,1.3l-3,21.7l0,0.1v0l-1.1,6l0,0.1c0,0,0-0.1,0-0.1c-5.3-1.9-10.5-4.3-15.5-7
	c-1.3-0.7-2.6-1.4-3.8-2.2c0.8-2.6,1.8-5.1,2.9-7.6l2-15.9l0.6-4.9l17.5,3.1L631.6,264.1z"/>
<path class="st5" d="M624.9,217.3l-9.7,1c0,0-6.4,47.2-4.3,47.2s24.7,5.4,25.4,4S624.9,217.3,624.9,217.3z"/>
<path class="st0" d="M645.1,136.4l-4.3-1.6c0,0,9.1-9.1,21.7-8.3l-3.6-3.6c0,0,8.7-3.2,16.6,5.1c4.1,4.4,8.9,9.5,11.9,15.2h4.6
	l-1.9,3.9l6.8,3.9l-7-0.7c0.7,3.4,0.4,6.8-0.7,10.1l-1.6,4.3c0,0-6.3-12.6-6.3-14.2v3.9c0,0-4.3-3.6-4.3-5.9l-2.4,2.8l-1.2-4.3
	l-14.6,4.3l2.4-3.6l-9.1,1.2l3.6-4.3c0,0-10.3,5.1-10.7,9.5s-5.5,9.9-5.5,9.9l-2.4-3.9C637.2,160.1,633.7,142.4,645.1,136.4z"/>
<path class="st4" d="M723.7,288.5c-2,1.2-4,2.4-6.1,3.5c-3.1,1.6-6.3,3.1-9.5,4.5v0c-1,0.4-2.1,0.8-3.1,1.2c-0.5,0.2-1,0.4-1.5,0.6
	l1-6.1l-4.8-30.2l-0.6-3.8l2.4-0.5l22.4-4.2v27.4C723.9,280.9,723.9,283.8,723.7,288.5z"/>
<path class="st5" d="M701.1,207.3l13,1.7c0,0,15.7,47.8,11.7,49.8s-30.1,3.3-30.1,3.3L701.1,207.3z"/>
<circle class="st2" cx="186" cy="171" r="33"/>
<circle class="st2" cx="476" cy="316" r="33"/>
<circle class="st2" cx="747" cy="112" r="33"/>
<circle class="st3" cx="864" cy="68.9" r="28.1"/>
<path class="st0" d="M885.4,32.9c-4.7-6.3-12-10-19.9-10.1h-0.9c-18.2,0-32.9,16.5-32.9,36.8v0h6.1l1-7.5l1.4,7.5h36.2l3-6.3
	l-0.8,6.3h7.1c3.3,16.5-1.4,33-14.3,49.4h12.1l6.1-12.7L888,109h23.1l4.5-29.2C915.6,58,903,39.5,885.4,32.9z"/>
<circle class="st0" cx="892" cy="18" r="18"/>
<text transform="matrix(1 0 0 1 736.5991 125.7676)" class="st7 st8">$</text>
<g>
	<path d="M477.4,322.2l-10.7-5.1l10.7,18.7l10.7-18.7L477.4,322.2z"/>
	<path d="M486.9,313.3l-9.5-16.6l-9.6,16.6l9.6-4.5L486.9,313.3z"/>
	<path d="M468.7,315.5l8.7,4.1l8.7-4.1l-8.7-4.1L468.7,315.5z"/>
</g>
<g>
	<g>
		<path d="M199.6,172.9c-0.5-0.9-1.3-1.6-2.2-2.2c-0.6-0.4-1.6-0.7-2.8-1c1.1-0.4,2-0.9,2.7-1.4c0.7-0.6,1.2-1.3,1.6-2
			c0.4-0.8,0.6-1.6,0.6-2.4c0-1.2-0.3-2.2-1-3.2c-0.7-1-1.7-1.7-3-2.2c-0.7-0.3-1.7-0.5-2.8-0.6v-4.4h-3.6v4.2h-2.3v-4.2h-3.6v4.2
			h-7.7v3.5h1c0.7,0,1.1,0.1,1.4,0.2c0.2,0.1,0.4,0.3,0.5,0.5c0.1,0.2,0.1,0.7,0.1,1.5v14.3c0,0.7,0,1.2-0.1,1.4
			c-0.1,0.2-0.3,0.4-0.5,0.5c-0.2,0.1-0.7,0.2-1.4,0.2h-1v3.5h7.7v4.2h3.6v-4.2h2.3c0,0,0.1,0,0.1,0v4.2h3.6V183
			c1.2-0.2,2.2-0.4,3-0.7c1.5-0.6,2.7-1.5,3.5-2.6c0.8-1.1,1.2-2.4,1.2-3.8C200.4,174.8,200.2,173.8,199.6,172.9z M184.9,161.8h2.9
			c1.7,0,2.8,0.1,3.5,0.3s1.1,0.5,1.5,1c0.3,0.5,0.5,1.1,0.5,1.7c0,0.6-0.2,1.2-0.5,1.7c-0.4,0.5-0.9,0.9-1.6,1.1
			c-0.7,0.2-1.8,0.4-3.3,0.4h-2.9C184.9,168,184.9,161.8,184.9,161.8z M192.9,177.6c-0.5,0.6-1.1,1.1-1.9,1.3
			c-0.7,0.2-1.6,0.3-2.7,0.3h-1.9c-0.6,0-1,0-1.2-0.1c-0.1-0.1-0.2-0.2-0.3-0.4c-0.1-0.1-0.1-0.6-0.1-1.4v-5.5h3.4
			c1.5,0,2.6,0.1,3.3,0.4c0.7,0.3,1.3,0.7,1.6,1.2c0.4,0.5,0.5,1.2,0.5,1.9C193.7,176.2,193.4,177,192.9,177.6z"/>
	</g>
	<g>
	</g>
	<g>
	</g>
	<g>
	</g>
	<g>
	</g>
	<g>
	</g>
	<g>
	</g>
	<g>
	</g>
	<g>
	</g>
	<g>
	</g>
	<g>
	</g>
	<g>
	</g>
	<g>
	</g>
	<g>
	</g>
	<g>
	</g>
	<g>
	</g>
</g>
</svg>
