<svg id="Layer_1" data-name="Layer 1" xmlns="http://www.w3.org/2000/svg" xmlns:xlink="http://www.w3.org/1999/xlink" viewBox="0 0 514 431.25"><defs><linearGradient id="linear-gradient" x1="249.97" y1="396.23" x2="256.31" y2="178.08" gradientUnits="userSpaceOnUse"><stop offset="0" stop-color="#010101" stop-opacity="0"/><stop offset="0.95" stop-color="#010101"/></linearGradient><linearGradient id="linear-gradient-2" x1="186.69" y1="183.91" x2="308.98" y2="183.91" xlink:href="#linear-gradient"/><linearGradient id="linear-gradient-3" x1="241.09" y1="143.35" x2="241.67" y2="154.41" xlink:href="#linear-gradient"/></defs><title>Saving 1</title><path d="M225.05,18.52c-25.4,1.56-51.15,5-74.29,15.64-20.69,9.5-38.5,24.38-54.34,40.74C81.89,89.9,68.59,106.62,61,126.08,54.9,141.89,52.74,159,47,175c-10.45,29-32.44,53.4-38.88,83.53a113.59,113.59,0,0,0-1.64,32.72c4.94,62.4,47.81,120.25,106.06,143.13,26.75,10.51,55.78,14,84.51,14.38,35.62.48,71.13-3.66,106.51-7.79,59.82-7,121.43-14.54,173.93-44.05,7.62-4.29,15.09-9.08,21-15.49,8.38-9,13.32-20.69,16.55-32.56a143.18,143.18,0,0,0-4-87c-7.39-19.76-19.3-38.4-20.81-59.44-1.6-22.31,8.74-43.49,14.63-65.07,5.12-18.76,6.07-43.56-6.13-60.16-8.71-11.85-25.63-15.93-38.66-21.06a554.65,554.65,0,0,0-149.37-36A543.51,543.51,0,0,0,225.05,18.52Z" transform="translate(-6 -17.51)" fill="#68e1fd" opacity="0.24" style="isolation:isolate"/><ellipse cx="250.76" cy="369.03" rx="102.14" ry="15.3" fill="url(#linear-gradient)"/><path d="M260.92,171.76h-9.49a107,107,0,0,0-107,107v9.49a107,107,0,0,0,107,107h9.49a107,107,0,0,0,107-107v-9.49A107,107,0,0,0,260.92,171.76ZM361.75,287.2A100.64,100.64,0,0,1,261.11,387.85h-8.9A100.64,100.64,0,0,1,151.56,287.2v-8.93A100.63,100.63,0,0,1,252.21,177.65h8.9A100.63,100.63,0,0,1,361.75,278.27Z" transform="translate(-6 -17.51)" fill="#68e1fd"/><path d="M361.75,278.27v8.93c0,3.07-.12,6.11-.4,9.08a100.65,100.65,0,0,1-100.24,91.57h-8.9A100.65,100.65,0,0,1,152,296.28c-.28-3-.4-6-.4-9.08v-8.93A100.63,100.63,0,0,1,252.21,177.65h8.9A100.63,100.63,0,0,1,361.75,278.27Z" transform="translate(-6 -17.51)" fill="#68e1fd" opacity="0.24" style="isolation:isolate"/><path d="M361.35,296.28a100.65,100.65,0,0,1-100.24,91.57h-8.9A100.65,100.65,0,0,1,152,296.28a100.63,100.63,0,0,1,100.25-91.56h8.9A100.63,100.63,0,0,1,361.35,296.28Z" transform="translate(-6 -17.51)" fill="#68e1fd" opacity="0.24" style="isolation:isolate"/><circle cx="250.54" cy="282.1" r="25.21" fill="#e8a825"/><circle cx="248.08" cy="280.75" r="25.21" fill="#f8c244"/><circle cx="248.08" cy="280.75" r="21.48" fill="#e8a825"/><path d="M245.83,309.17l1.66-3a9.91,9.91,0,0,1-3.84-3.83l1.81-1.6a9.14,9.14,0,0,0,3.6,3.64c2.12,1.17,4.22.73,5.16-1s.3-3.3-1.42-5.41c-2.39-2.87-3.52-5.28-2.09-7.87s4.16-3.4,7.16-2.33l1.66-3,1.85,1-1.6,2.89a9.12,9.12,0,0,1,3.31,3.19l-1.83,1.56a8.18,8.18,0,0,0-3.2-3.09c-2.3-1.26-3.93-.37-4.58.83-.86,1.55-.18,2.94,1.83,5.44,2.39,2.95,3.09,5.35,1.62,8-1.29,2.36-4.15,3.67-7.51,2.48l-1.7,3.11Z" transform="translate(-6 -17.51)" fill="#f8c244"/><circle cx="206.91" cy="292.1" r="25.21" fill="#e8a825"/><circle cx="204.85" cy="290.2" r="25.21" fill="#f8c244"/><circle cx="204.85" cy="290.2" r="21.48" fill="#e8a825"/><path d="M200.25,316.35l2.33-2.53a9.91,9.91,0,0,1-2.83-4.63l2.14-1.13a9,9,0,0,0,2.63,4.39c1.78,1.64,3.93,1.72,5.25.28s1.07-3.13-.1-5.59c-1.64-3.35-2.16-6-.16-8.15s4.85-2.3,7.51-.56l2.32-2.54,1.56,1.43-2.24,2.44a9,9,0,0,1,2.46,3.87L219,304.71a8.33,8.33,0,0,0-2.39-3.75c-1.93-1.78-3.72-1.29-4.64-.29-1.2,1.31-.87,2.82.49,5.72,1.62,3.43,1.72,5.94-.33,8.17-1.82,2-4.9,2.58-7.88.63l-2.4,2.61Z" transform="translate(-6 -17.51)" fill="#f8c244"/><circle cx="294.91" cy="290.48" r="25.21" fill="#e8a825"/><circle cx="292.26" cy="291.4" r="25.21" fill="#f8c244"/><circle cx="292.26" cy="291.4" r="21.48" fill="#e8a825"/><path d="M300.85,322.34l-1.13-3.25a9.93,9.93,0,0,1-5.42.29l0-2.42a9.07,9.07,0,0,0,5.12-.23c2.28-.8,3.37-2.65,2.73-4.49s-2.25-2.43-5-2.56c-3.73-.15-6.27-.92-7.25-3.73s.27-5.36,3.06-6.87l-1.13-3.25,2-.69,1.09,3.12a9.1,9.1,0,0,1,4.58-.33l-.07,2.4a8.24,8.24,0,0,0-4.44.32c-2.47.86-2.89,2.67-2.44,4,.58,1.68,2.06,2.1,5.26,2.29,3.79.19,6,1.29,7,4.15.89,2.54-.05,5.54-3.18,7.24l1.17,3.35Z" transform="translate(-6 -17.51)" fill="#f8c244"/><path d="M308.67,184c0,9.14-27.19,16.58-60.71,16.58s-60.74-7.44-60.74-16.58c0-2-1.52-13.83.58-16.72a4.82,4.82,0,0,0-.58,2.3c0,9.18,27.19,16.59,60.74,16.59,33.11,0,60-7.23,60.68-16.25C309.38,174.83,308.67,182.27,308.67,184Z" transform="translate(-6 -17.51)" fill="#68e1fd"/><path d="M308.67,184c0,9.14-27.19,16.58-60.71,16.58s-60.74-7.44-60.74-16.58c0-2-1.52-13.83.58-16.72a4.82,4.82,0,0,0-.58,2.3c0,9.18,27.19,16.59,60.74,16.59,33.11,0,60-7.23,60.68-16.25C309.38,174.83,308.67,182.27,308.67,184Z" transform="translate(-6 -17.51)" opacity="0.37" fill="url(#linear-gradient-2)"/><path d="M308.64,169.9c-.65,9-27.57,16.25-60.68,16.25-33.55,0-60.74-7.41-60.74-16.59a4.82,4.82,0,0,1,.58-2.3s0,0,0,0C192,159.17,217.32,153,248,153c28.9,0,53.08,5.52,59.16,12.93a2.79,2.79,0,0,1,.59.74A10.16,10.16,0,0,1,308.64,169.9Z" transform="translate(-6 -17.51)" fill="#68e1fd"/><path d="M308.67,169.56a1.34,1.34,0,0,1,0,.34,10.16,10.16,0,0,0-.93-3.26A5,5,0,0,1,308.67,169.56Z" transform="translate(-6 -17.51)" fill="#68e1fd"/><rect x="218.46" y="148.43" width="45.98" height="3.78" opacity="0.37" fill="url(#linear-gradient-3)"/><circle cx="227.96" cy="110.39" r="27.5" fill="#e8a825"/><circle cx="224.91" cy="110.39" r="27.5" fill="#f8c244"/><circle cx="224.91" cy="110.39" r="23.43" fill="#e8a825"/><path d="M228.76,142.66V138.9a10.75,10.75,0,0,1-5.69-1.63l.89-2.49a9.93,9.93,0,0,0,5.36,1.59c2.64,0,4.42-1.52,4.42-3.64s-1.45-3.31-4.2-4.43c-3.79-1.48-6.14-3.19-6.14-6.43s2.2-5.43,5.62-6v-3.75h2.3v3.61a9.82,9.82,0,0,1,4.84,1.3l-.93,2.45a9,9,0,0,0-4.69-1.26c-2.86,0-3.94,1.71-3.94,3.19,0,1.94,1.38,2.91,4.61,4.24,3.83,1.57,5.77,3.5,5.77,6.81,0,2.94-2,5.69-5.88,6.32v3.87Z" transform="translate(-6 -17.51)" fill="#f8c244"/><circle cx="217.12" cy="56.37" r="25.21" fill="#e8a825"/><circle cx="214.32" cy="56.37" r="25.21" fill="#f8c244"/><circle cx="214.32" cy="56.37" r="21.48" fill="#e8a825"/><path d="M218.35,87.41V84a9.94,9.94,0,0,1-5.22-1.5l.82-2.28a9.16,9.16,0,0,0,4.91,1.46c2.42,0,4.06-1.4,4.06-3.34s-1.33-3-3.86-4.06c-3.47-1.36-5.62-2.93-5.62-5.89s2-5,5.15-5.49V59.43h2.11v3.3a9.08,9.08,0,0,1,4.43,1.2l-.85,2.25A8.22,8.22,0,0,0,220,65c-2.63,0-3.62,1.57-3.62,2.93,0,1.77,1.26,2.66,4.23,3.88,3.51,1.44,5.28,3.21,5.28,6.24,0,2.7-1.87,5.22-5.38,5.8v3.54Z" transform="translate(-6 -17.51)" fill="#f8c244"/><circle cx="173.03" cy="28.43" r="25.21" fill="#e8a825"/><circle cx="170.23" cy="28.43" r="25.21" fill="#f8c244"/><circle cx="170.23" cy="28.43" r="21.48" fill="#e8a825"/><path d="M174.26,59.47V56a9.87,9.87,0,0,1-5.21-1.5l.81-2.28a9.08,9.08,0,0,0,4.91,1.46c2.42,0,4.06-1.39,4.06-3.34s-1.33-3-3.85-4c-3.48-1.37-5.63-2.93-5.63-5.9s2-5,5.15-5.49V31.49h2.11V34.8A9.09,9.09,0,0,1,181,36l-.85,2.25a8.19,8.19,0,0,0-4.29-1.16c-2.63,0-3.62,1.57-3.62,2.93,0,1.77,1.26,2.66,4.23,3.89,3.51,1.43,5.28,3.2,5.28,6.24,0,2.69-1.87,5.21-5.38,5.79v3.54Z" transform="translate(-6 -17.51)" fill="#f8c244"/><path d="M289.56,382.2c-15.19-.22-27.43-5.42-27.34-11.61,0-.69-.52-4.56-.22-5.21,2.39-5.2,14.37-5.81,27.88-5.62,13.28.19,24.43,0,26.92,5.13.36.73.42,5.7.41,6.48C317.13,377.57,304.74,382.41,289.56,382.2Z" transform="translate(-6 -17.51)" fill="#e8a825"/><ellipse cx="289.49" cy="365.78" rx="11.22" ry="27.5" transform="translate(-86.37 632.52) rotate(-89.18)" fill="#f8c244"/><ellipse cx="289.49" cy="365.78" rx="9.56" ry="23.43" transform="translate(-86.37 632.52) rotate(-89.18)" fill="#e8a825"/><path d="M274.74,364.69l3.76.05a3.06,3.06,0,0,1,1.67-2.3l2.48.4A2.91,2.91,0,0,0,281,365c0,1.07,1.5,1.82,3.62,1.85a5.64,5.64,0,0,0,4.45-1.65c1.51-1.53,3.24-2.46,6.47-2.41s5.42,1,5.95,2.38l3.76.05v.94l-3.61-.05a2.7,2.7,0,0,1-1.33,1.95l-2.45-.41a2.49,2.49,0,0,0,1.29-1.9c0-1.16-1.69-1.63-3.17-1.65a5.23,5.23,0,0,0-4.27,1.82c-1.58,1.54-3.53,2.3-6.84,2.26-2.93-.05-5.67-.92-6.28-2.49l-3.87-.06Z" transform="translate(-6 -17.51)" fill="#f8c244"/><path d="M393,386.56c-15.19-.21-27.43-5.41-27.34-11.61,0-.69-.52-4.55-.22-5.2,2.4-5.2,14.38-5.82,27.88-5.63,13.29.19,24.44,0,26.93,5.13.35.74.42,5.71.41,6.48C420.58,381.93,408.2,386.78,393,386.56Z" transform="translate(-6 -17.51)" fill="#e8a825"/><ellipse cx="392.95" cy="370.14" rx="11.22" ry="27.5" transform="translate(11.25 740.27) rotate(-89.18)" fill="#f8c244"/><ellipse cx="392.95" cy="370.14" rx="9.56" ry="23.43" transform="translate(11.25 740.27) rotate(-89.18)" fill="#e8a825"/><path d="M378.2,369.05l3.75.06a3.08,3.08,0,0,1,1.67-2.3l2.49.4a2.86,2.86,0,0,0-1.63,2.16c0,1.08,1.5,1.83,3.62,1.86a5.7,5.7,0,0,0,4.45-1.65c1.51-1.53,3.23-2.46,6.46-2.42s5.42,1,6,2.38l3.75,0v.94l-3.61,0a2.69,2.69,0,0,1-1.33,2l-2.44-.42a2.52,2.52,0,0,0,1.29-1.89c0-1.17-1.69-1.63-3.18-1.65a5.2,5.2,0,0,0-4.26,1.82c-1.59,1.54-3.53,2.3-6.84,2.25-2.94,0-5.68-.91-6.29-2.49l-3.87-.05Z" transform="translate(-6 -17.51)" fill="#f8c244"/><path d="M397.16,376.74c-15.19-.22-27.43-5.41-27.34-11.61,0-.69-.52-4.55-.22-5.2,2.39-5.21,14.37-5.82,27.88-5.63,13.29.19,24.43,0,26.93,5.13.35.74.42,5.71.4,6.48C424.73,372.11,412.34,377,397.16,376.74Z" transform="translate(-6 -17.51)" fill="#e8a825"/><ellipse cx="397.1" cy="360.32" rx="11.22" ry="27.5" transform="translate(25.16 734.73) rotate(-89.18)" fill="#f8c244"/><ellipse cx="397.1" cy="360.32" rx="9.56" ry="23.43" transform="translate(25.16 734.73) rotate(-89.18)" fill="#e8a825"/><path d="M382.35,359.23l3.75.06a3,3,0,0,1,1.67-2.3l2.49.4a2.83,2.83,0,0,0-1.63,2.16c0,1.08,1.49,1.83,3.61,1.86a5.65,5.65,0,0,0,4.45-1.66c1.51-1.52,3.24-2.45,6.47-2.41s5.42,1,6,2.38l3.75,0v.94l-3.61,0a2.73,2.73,0,0,1-1.33,2l-2.45-.42a2.49,2.49,0,0,0,1.29-1.89c0-1.17-1.68-1.63-3.17-1.66a5.24,5.24,0,0,0-4.27,1.83c-1.58,1.54-3.52,2.3-6.83,2.25-2.94,0-5.68-.92-6.29-2.49l-3.87-.05Z" transform="translate(-6 -17.51)" fill="#f8c244"/><path d="M390.17,367.79c-15.18-.21-27.42-5.41-27.33-11.61,0-.69-.52-4.55-.23-5.2,2.4-5.2,14.38-5.82,27.88-5.63,13.29.19,24.44,0,26.93,5.13.36.74.42,5.71.41,6.48C417.74,363.16,405.36,368,390.17,367.79Z" transform="translate(-6 -17.51)" fill="#e8a825"/><ellipse cx="390.11" cy="351.37" rx="11.22" ry="27.5" transform="translate(27.22 718.93) rotate(-89.18)" fill="#f8c244"/><ellipse cx="390.11" cy="351.37" rx="9.56" ry="23.43" transform="translate(27.22 718.93) rotate(-89.18)" fill="#e8a825"/><path d="M375.36,350.28l3.76.06a3.07,3.07,0,0,1,1.66-2.3l2.49.4a2.86,2.86,0,0,0-1.63,2.16c0,1.08,1.5,1.83,3.62,1.86a5.67,5.67,0,0,0,4.45-1.65c1.51-1.53,3.23-2.46,6.47-2.42,3.08.05,5.41,1,5.95,2.38l3.76.05,0,.94-3.6-.05a2.71,2.71,0,0,1-1.33,2l-2.45-.42a2.49,2.49,0,0,0,1.29-1.89c0-1.17-1.69-1.63-3.17-1.65a5.22,5.22,0,0,0-4.27,1.82c-1.58,1.54-3.53,2.3-6.84,2.25-2.94,0-5.68-.91-6.29-2.49l-3.86-.05Z" transform="translate(-6 -17.51)" fill="#f8c244"/><path d="M393,359.06c-15.19-.22-27.43-5.41-27.34-11.61,0-.69-.52-4.55-.22-5.2,2.4-5.21,14.38-5.82,27.88-5.63,13.29.19,24.44,0,26.93,5.13.35.74.42,5.71.41,6.48C420.58,354.43,408.2,359.28,393,359.06Z" transform="translate(-6 -17.51)" fill="#e8a825"/><ellipse cx="392.95" cy="342.64" rx="11.22" ry="27.5" transform="translate(38.75 713.16) rotate(-89.18)" fill="#f8c244"/><ellipse cx="392.95" cy="342.64" rx="9.56" ry="23.43" transform="translate(38.75 713.16) rotate(-89.18)" fill="#e8a825"/><path d="M378.2,341.55l3.75.06a3.08,3.08,0,0,1,1.67-2.3l2.49.4a2.86,2.86,0,0,0-1.63,2.16c0,1.08,1.5,1.83,3.62,1.86a5.7,5.7,0,0,0,4.45-1.65c1.51-1.53,3.23-2.46,6.46-2.42s5.42,1,6,2.38l3.75,0V343l-3.61,0a2.69,2.69,0,0,1-1.33,2l-2.44-.42a2.52,2.52,0,0,0,1.29-1.89c0-1.17-1.69-1.63-3.18-1.65a5.2,5.2,0,0,0-4.26,1.82c-1.59,1.54-3.53,2.3-6.84,2.25-2.94,0-5.68-.91-6.29-2.49l-3.87-.05Z" transform="translate(-6 -17.51)" fill="#f8c244"/><path d="M393,349.78c-15.19-.22-27.43-5.42-27.34-11.61,0-.69-.52-4.56-.22-5.21,2.4-5.2,14.38-5.81,27.88-5.62,13.29.19,24.44,0,26.93,5.13.35.73.42,5.7.41,6.48C420.58,345.14,408.2,350,393,349.78Z" transform="translate(-6 -17.51)" fill="#e8a825"/><ellipse cx="392.95" cy="333.36" rx="11.22" ry="27.5" transform="translate(48.03 704.01) rotate(-89.18)" fill="#f8c244"/><ellipse cx="392.95" cy="333.36" rx="9.56" ry="23.43" transform="translate(48.03 704.01) rotate(-89.18)" fill="#e8a825"/><path d="M378.2,332.27l3.75.05a3.08,3.08,0,0,1,1.67-2.3l2.49.4a2.89,2.89,0,0,0-1.63,2.16c0,1.08,1.5,1.83,3.62,1.86a5.67,5.67,0,0,0,4.45-1.65c1.51-1.53,3.23-2.46,6.46-2.41s5.42,1,6,2.38l3.75.05v.94l-3.61-.05a2.67,2.67,0,0,1-1.33,1.95l-2.44-.41a2.52,2.52,0,0,0,1.29-1.9c0-1.16-1.69-1.63-3.18-1.65a5.2,5.2,0,0,0-4.26,1.82c-1.59,1.54-3.53,2.3-6.84,2.26-2.94,0-5.68-.92-6.29-2.49l-3.87-.06Z" transform="translate(-6 -17.51)" fill="#f8c244"/><path d="M449.62,383.84c-13.25-.19-23.93-4.73-23.86-10.13,0-.6-.45-4-.19-4.54,2.09-4.54,12.54-5.08,24.32-4.91,11.6.17,21.33,0,23.5,4.48.31.64.37,5,.36,5.65C473.67,379.8,462.87,384,449.62,383.84Z" transform="translate(-6 -17.51)" fill="#e8a825"/><ellipse cx="449.56" cy="369.51" rx="9.79" ry="23.99" transform="matrix(0.01, -1, 1, 0.01, 67.68, 796.26)" fill="#f8c244"/><ellipse cx="449.56" cy="369.51" rx="8.34" ry="20.44" transform="translate(67.68 796.26) rotate(-89.18)" fill="#e8a825"/><path d="M436.69,368.56l3.28.05a2.68,2.68,0,0,1,1.45-2l2.17.35a2.53,2.53,0,0,0-1.42,1.89c0,.94,1.31,1.59,3.16,1.62a5,5,0,0,0,3.88-1.44,6.94,6.94,0,0,1,5.64-2.1c2.7,0,4.73.84,5.2,2.07l3.28.05,0,.82-3.14-.05a2.41,2.41,0,0,1-1.16,1.71l-2.14-.37A2.18,2.18,0,0,0,458,369.5c0-1-1.48-1.42-2.77-1.44a4.51,4.51,0,0,0-3.72,1.59c-1.39,1.34-3.08,2-6,2-2.56,0-5-.79-5.49-2.17l-3.37,0Z" transform="translate(-6 -17.51)" fill="#f8c244"/><path d="M452.09,376.22c-13.25-.19-23.93-4.72-23.85-10.13,0-.6-.45-4-.19-4.54,2.09-4.54,12.54-5.07,24.32-4.91,11.59.17,21.32,0,23.49,4.48.32.64.37,5,.36,5.65C476.15,372.18,465.34,376.41,452.09,376.22Z" transform="translate(-6 -17.51)" fill="#e8a825"/><ellipse cx="452.04" cy="361.89" rx="9.79" ry="23.99" transform="translate(77.74 791.22) rotate(-89.18)" fill="#f8c244"/><ellipse cx="452.04" cy="361.89" rx="8.34" ry="20.44" transform="translate(77.74 791.22) rotate(-89.18)" fill="#e8a825"/><path d="M439.17,361l3.27,0a2.68,2.68,0,0,1,1.46-2l2.17.35a2.47,2.47,0,0,0-1.42,1.88c0,.94,1.31,1.6,3.15,1.62a4.92,4.92,0,0,0,3.89-1.44,6.92,6.92,0,0,1,5.64-2.1c2.69,0,4.73.85,5.2,2.07l3.27.05v.82l-3.15-.05a2.34,2.34,0,0,1-1.16,1.71l-2.13-.36a2.21,2.21,0,0,0,1.12-1.66c0-1-1.47-1.42-2.77-1.44A4.6,4.6,0,0,0,454,362c-1.38,1.34-3.08,2-6,2-2.57,0-5-.8-5.49-2.17l-3.37-.05Z" transform="translate(-6 -17.51)" fill="#f8c244"/><path d="M452.09,368.12c-13.25-.19-23.93-4.72-23.85-10.13,0-.6-.45-4-.19-4.54,2.09-4.54,12.54-5.07,24.32-4.91,11.59.17,21.32,0,23.49,4.48.32.64.37,5,.36,5.65C476.15,364.08,465.34,368.31,452.09,368.12Z" transform="translate(-6 -17.51)" fill="#e8a825"/><ellipse cx="452.04" cy="353.79" rx="9.79" ry="23.99" transform="translate(85.84 783.24) rotate(-89.18)" fill="#f8c244"/><ellipse cx="452.04" cy="353.79" rx="8.34" ry="20.44" transform="translate(85.84 783.24) rotate(-89.18)" fill="#e8a825"/><path d="M439.17,352.84l3.27.05a2.67,2.67,0,0,1,1.46-2l2.17.34a2.5,2.5,0,0,0-1.42,1.89c0,.94,1.31,1.6,3.15,1.62a4.92,4.92,0,0,0,3.89-1.44,6.92,6.92,0,0,1,5.64-2.1c2.69,0,4.73.85,5.2,2.07l3.27.05v.82l-3.15-.05a2.34,2.34,0,0,1-1.16,1.71l-2.13-.36a2.21,2.21,0,0,0,1.12-1.66c0-1-1.47-1.42-2.77-1.44a4.57,4.57,0,0,0-3.72,1.59c-1.38,1.34-3.08,2-6,2-2.57,0-5-.8-5.49-2.17l-3.37-.05Z" transform="translate(-6 -17.51)" fill="#f8c244"/><path d="M321.66,359.55c-14.57,4.28-27.8,2.93-29.55-3-.19-.66-1.84-4.2-1.74-4.9.75-5.68,12-9.81,25-13.62,12.75-3.74,23.34-7.24,27.24-3.05.56.59,2.09,5.33,2.31,6.07C346.63,347,336.23,355.26,321.66,359.55Z" transform="translate(-6 -17.51)" fill="#e8a825"/><ellipse cx="316.75" cy="343.88" rx="27.5" ry="11.22" transform="translate(-90.08 85.71) rotate(-16.37)" fill="#f8c244"/><ellipse cx="316.75" cy="343.88" rx="23.43" ry="9.56" transform="matrix(0.96, -0.28, 0.28, 0.96, -90.08, 85.71)" fill="#e8a825"/><path d="M302.34,347.2l3.6-1.06a3,3,0,0,1,.92-2.69l2.49-.35a2.86,2.86,0,0,0-.92,2.54c.31,1,2,1.31,4,.71a5.65,5.65,0,0,0,3.76-2.9c1-1.9,2.36-3.3,5.47-4.21,3-.87,5.46-.67,6.39.51l3.6-1.06.27.9-3.46,1a2.7,2.7,0,0,1-.7,2.26l-2.46.33A2.48,2.48,0,0,0,326,341c-.33-1.12-2.09-1.06-3.52-.64a5.19,5.19,0,0,0-3.53,3c-1.06,1.94-2.7,3.24-5.87,4.17-2.82.83-5.69.8-6.74-.52l-3.71,1.09Z" transform="translate(-6 -17.51)" fill="#f8c244"/><path d="M229.67,379.13c-15.19-.22-27.43-5.42-27.34-11.61,0-.69-.52-4.56-.22-5.2,2.4-5.21,14.38-5.82,27.88-5.63,13.29.19,24.44,0,26.93,5.13.35.73.42,5.71.41,6.48C257.24,374.5,244.86,379.34,229.67,379.13Z" transform="translate(-6 -17.51)" fill="#e8a825"/><ellipse cx="229.61" cy="362.71" rx="11.22" ry="27.5" transform="translate(-142.33 569.62) rotate(-89.18)" fill="#f8c244"/><ellipse cx="229.61" cy="362.71" rx="9.56" ry="23.43" transform="translate(-142.33 569.62) rotate(-89.18)" fill="#e8a825"/><path d="M214.86,361.62l3.75.05a3,3,0,0,1,1.67-2.29l2.49.4a2.86,2.86,0,0,0-1.63,2.16c0,1.07,1.5,1.82,3.62,1.85a5.65,5.65,0,0,0,4.45-1.65c1.51-1.52,3.23-2.45,6.47-2.41,3.08,0,5.41,1,5.95,2.38l3.75.05v.94l-3.6-.05a2.72,2.72,0,0,1-1.33,1.95l-2.45-.41a2.52,2.52,0,0,0,1.29-1.89c0-1.17-1.69-1.64-3.18-1.66a5.23,5.23,0,0,0-4.26,1.82c-1.59,1.54-3.53,2.31-6.84,2.26-2.94,0-5.68-.92-6.29-2.49l-3.86-.05Z" transform="translate(-6 -17.51)" fill="#f8c244"/><path d="M335.36,333.73c-13.88,6.17-27.18,6.57-29.69.91-.28-.63-2.38-3.92-2.38-4.63,0-5.73,10.62-11.31,23-16.79,12.15-5.39,22.19-10.25,26.6-6.61.64.51,2.78,5,3.09,5.71C358.45,318,349.24,327.57,335.36,333.73Z" transform="translate(-6 -17.51)" fill="#e8a825"/><ellipse cx="328.43" cy="318.85" rx="27.5" ry="11.22" transform="translate(-107.12 143.16) rotate(-23.94)" fill="#f8c244"/><ellipse cx="328.43" cy="318.85" rx="23.43" ry="9.56" transform="translate(-107.12 143.16) rotate(-23.94)" fill="#e8a825"/><path d="M314.58,324l3.43-1.53a3,3,0,0,1,.55-2.78l2.43-.68a2.86,2.86,0,0,0-.58,2.64c.44,1,2.13,1,4.07.18a5.67,5.67,0,0,0,3.34-3.37c.74-2,1.91-3.58,4.87-4.89s5.32-1.39,6.4-.34l3.43-1.52.38.86-3.29,1.46a2.71,2.71,0,0,1-.39,2.33l-2.4.65a2.48,2.48,0,0,0,.38-2.26c-.47-1.07-2.21-.78-3.57-.17a5.19,5.19,0,0,0-3.11,3.44c-.8,2.06-2.25,3.56-5.27,4.91-2.69,1.19-5.54,1.54-6.75.37L315,324.91Z" transform="translate(-6 -17.51)" fill="#f8c244"/><path d="M171,320.25c-11.28-10.16-17.07-22.13-12.93-26.74.46-.51,2.61-3.77,3.26-4.06,5.23-2.34,14.65,5.09,24.69,14.13,9.87,8.89,18.4,16.07,16.89,21.59-.22.78-3.44,4.57-4,5.15C194.83,334.92,182.32,330.41,171,320.25Z" transform="translate(-6 -17.51)" fill="#e8a825"/><ellipse cx="181.8" cy="307.85" rx="11.22" ry="27.5" transform="translate(-174.63 219.44) rotate(-48)" fill="#f8c244"/><ellipse cx="181.8" cy="307.85" rx="9.56" ry="23.43" transform="translate(-174.63 219.44) rotate(-48)" fill="#e8a825"/><path d="M171.41,297.32l2.79,2.51a3.08,3.08,0,0,1,2.77-.63l1.61,1.94a2.85,2.85,0,0,0-2.65.56c-.72.8-.07,2.36,1.5,3.78a5.69,5.69,0,0,0,4.44,1.68c2.14-.15,4,.28,6.45,2.45s3.44,4.3,2.92,5.71l2.79,2.51-.63.7-2.68-2.41a2.71,2.71,0,0,1-2.29.59l-1.57-1.92a2.52,2.52,0,0,0,2.22-.58c.79-.87-.19-2.34-1.3-3.33a5.18,5.18,0,0,0-4.41-1.44c-2.2.11-4.17-.59-6.63-2.81-2.18-2-3.67-4.43-3.09-6L170.78,298Z" transform="translate(-6 -17.51)" fill="#f8c244"/><path d="M251.59,342.49c-15.13,1.39-27.85-2.48-28.42-8.65-.06-.68-1-4.47-.77-5.15,1.83-5.43,13.68-7.31,27.13-8.55,13.23-1.22,24.3-2.61,27.32,2.25.43.69,1,5.63,1.09,6.4C278.51,335,266.71,341.09,251.59,342.49Z" transform="translate(-6 -17.51)" fill="#e8a825"/><ellipse cx="249.79" cy="326.17" rx="27.5" ry="11.22" transform="translate(-34.89 6.8) rotate(-5.27)" fill="#f8c244"/><ellipse cx="249.79" cy="326.17" rx="23.43" ry="9.56" transform="translate(-34.89 6.8) rotate(-5.27)" fill="#e8a825"/><path d="M235,326.65l3.74-.35a3.07,3.07,0,0,1,1.42-2.46l2.51.14a2.89,2.89,0,0,0-1.39,2.32c.1,1.07,1.69,1.66,3.8,1.46a5.69,5.69,0,0,0,4.25-2.11c1.34-1.68,2.95-2.79,6.17-3.08s5.49.39,6.18,1.73l3.74-.35.08.94-3.59.33a2.71,2.71,0,0,1-1.11,2.08l-2.48-.15a2.52,2.52,0,0,0,1.08-2c-.11-1.16-1.85-1.44-3.33-1.31a5.22,5.22,0,0,0-4,2.27c-1.41,1.7-3.27,2.66-6.56,3-2.93.27-5.74-.31-6.52-1.8l-3.85.35Z" transform="translate(-6 -17.51)" fill="#f8c244"/><path d="M182.34,354c-12.28-8.94-19.27-20.25-15.63-25.25.41-.56,2.21-4,2.82-4.38,5-2.87,15.1,3.54,26,11.49,10.74,7.83,20,14.09,19,19.73-.13.81-3,4.91-3.4,5.53C207.53,366.09,194.62,362.9,182.34,354Z" transform="translate(-6 -17.51)" fill="#e8a825"/><ellipse cx="191.77" cy="340.52" rx="11.22" ry="27.5" transform="translate(-202.39 277.58) rotate(-53.94)" fill="#f8c244"/><ellipse cx="191.77" cy="340.52" rx="9.56" ry="23.43" transform="translate(-202.39 277.58) rotate(-53.94)" fill="#e8a825"/><path d="M180.35,331.12l3,2.21a3.09,3.09,0,0,1,2.69-.92l1.8,1.77a2.85,2.85,0,0,0-2.58.82c-.63.87.17,2.36,1.89,3.61a5.62,5.62,0,0,0,4.58,1.21c2.12-.37,4.06-.14,6.68,1.77s3.86,3.92,3.49,5.37l3,2.21-.55.76-2.91-2.12a2.72,2.72,0,0,1-2.22.83l-1.76-1.75a2.54,2.54,0,0,0,2.15-.8c.69-.95-.44-2.31-1.64-3.18a5.21,5.21,0,0,0-4.53-1c-2.19.34-4.22-.16-6.89-2.1-2.38-1.73-4.11-4-3.7-5.66l-3.13-2.28Z" transform="translate(-6 -17.51)" fill="#f8c244"/><path d="M207.07,343c-13.34-7.25-21.77-17.53-18.81-23,.33-.6,1.65-4.27,2.22-4.71,4.54-3.49,15.43,1.53,27.3,8,11.68,6.34,21.65,11.33,21.46,17.05,0,.82-2.27,5.25-2.64,5.93C233.64,351.68,220.42,350.22,207.07,343Z" transform="translate(-6 -17.51)" fill="#e8a825"/><ellipse cx="214.65" cy="328.4" rx="11.22" ry="27.5" transform="translate(-182.38 342.85) rotate(-61.5)" fill="#f8c244"/><ellipse cx="214.65" cy="328.4" rx="9.56" ry="23.43" transform="translate(-182.38 342.85) rotate(-61.5)" fill="#e8a825"/><path d="M202.09,320.59l3.3,1.79a3,3,0,0,1,2.55-1.26l2,1.51a2.86,2.86,0,0,0-2.44,1.15c-.52,1,.47,2.32,2.34,3.33a5.61,5.61,0,0,0,4.7.6c2-.65,4-.67,6.85.87s4.35,3.38,4.17,4.87l3.3,1.8-.45.82-3.17-1.72a2.67,2.67,0,0,1-2.08,1.11l-2-1.5a2.49,2.49,0,0,0,2-1.08c.56-1-.73-2.23-2-2.94a5.23,5.23,0,0,0-4.62-.37c-2.12.63-4.2.4-7.1-1.18-2.59-1.4-4.61-3.44-4.42-5.12l-3.4-1.84Z" transform="translate(-6 -17.51)" fill="#f8c244"/><circle cx="274.05" cy="314.44" r="25.21" fill="#e8a825"/><circle cx="271.25" cy="314.44" r="25.21" fill="#f8c244"/><circle cx="271.25" cy="314.44" r="21.48" fill="#e8a825"/><path d="M275.28,345.48V342a10,10,0,0,1-5.22-1.5l.82-2.29a9.08,9.08,0,0,0,4.91,1.47c2.42,0,4.06-1.4,4.06-3.34s-1.33-3-3.86-4.06c-3.47-1.36-5.62-2.93-5.62-5.89s2-5,5.15-5.49V317.5h2.11v3.3a9.08,9.08,0,0,1,4.43,1.2l-.85,2.25a8.22,8.22,0,0,0-4.29-1.16c-2.63,0-3.62,1.57-3.62,2.93,0,1.77,1.26,2.66,4.23,3.88,3.51,1.44,5.28,3.21,5.28,6.24,0,2.69-1.87,5.22-5.38,5.8v3.54Z" transform="translate(-6 -17.51)" fill="#f8c244"/><circle cx="215.3" cy="316.13" r="25.21" fill="#e8a825"/><circle cx="212.5" cy="316.13" r="25.21" fill="#f8c244"/><circle cx="212.5" cy="316.13" r="21.48" fill="#e8a825"/><path d="M216.53,347.18v-3.45a9.78,9.78,0,0,1-5.21-1.5l.81-2.28a9.08,9.08,0,0,0,4.91,1.47c2.42,0,4.06-1.4,4.06-3.34s-1.33-3-3.85-4.06c-3.48-1.36-5.63-2.93-5.63-5.9s2-5,5.15-5.48v-3.45h2.11v3.31a9.06,9.06,0,0,1,4.43,1.19l-.85,2.25a8.19,8.19,0,0,0-4.29-1.16c-2.63,0-3.62,1.57-3.62,2.93,0,1.78,1.27,2.66,4.23,3.89,3.51,1.43,5.28,3.2,5.28,6.24,0,2.69-1.87,5.21-5.38,5.79v3.55Z" transform="translate(-6 -17.51)" fill="#f8c244"/><circle cx="246.41" cy="343.58" r="25.21" fill="#e8a825"/><circle cx="243.96" cy="342.23" r="25.21" fill="#f8c244"/><circle cx="243.96" cy="342.23" r="21.48" fill="#e8a825"/><path d="M241.71,370.65l1.66-3a9.92,9.92,0,0,1-3.85-3.82l1.82-1.61a9.07,9.07,0,0,0,3.59,3.65c2.13,1.17,4.23.73,5.17-1s.3-3.3-1.42-5.41c-2.39-2.87-3.52-5.28-2.09-7.88s4.16-3.39,7.16-2.33l1.65-3,1.85,1-1.59,2.9a9.11,9.11,0,0,1,3.31,3.18l-1.83,1.56a8.21,8.21,0,0,0-3.21-3.08c-2.3-1.27-3.92-.37-4.57.82-.86,1.56-.18,2.94,1.83,5.44,2.38,2.95,3.08,5.36,1.62,8-1.3,2.36-4.15,3.66-7.51,2.48l-1.71,3.1Z" transform="translate(-6 -17.51)" fill="#f8c244"/></svg>